<svg width="263" height="69" viewBox="0 0 263 69" fill="none" xmlns="http://www.w3.org/2000/svg">
<path d="M92.665 14.3C93.6183 14.3 94.4067 14.6117 95.03 15.235C95.6533 15.8583 95.965 16.665 95.965 17.655V51.645C95.965 52.5983 95.6533 53.405 95.03 54.065C94.4067 54.6883 93.6183 55 92.665 55C91.7117 55 90.9233 54.6883 90.3 54.065C89.6767 53.405 89.365 52.5983 89.365 51.645V48.95L90.575 49.445C90.575 49.9217 90.3183 50.5083 89.805 51.205C89.2917 51.865 88.595 52.525 87.715 53.185C86.835 53.845 85.79 54.4133 84.58 54.89C83.4067 55.33 82.1233 55.55 80.73 55.55C78.2 55.55 75.9083 54.9083 73.855 53.625C71.8017 52.305 70.17 50.5083 68.96 48.235C67.7867 45.925 67.2 43.285 67.2 40.315C67.2 37.3083 67.7867 34.6683 68.96 32.395C70.17 30.085 71.7833 28.2883 73.8 27.005C75.8167 25.685 78.0533 25.025 80.51 25.025C82.0867 25.025 83.535 25.2633 84.855 25.74C86.175 26.2167 87.3117 26.8217 88.265 27.555C89.255 28.2883 90.0067 29.04 90.52 29.81C91.07 30.5433 91.345 31.1667 91.345 31.68L89.365 32.395V17.655C89.365 16.7017 89.6767 15.9133 90.3 15.29C90.9233 14.63 91.7117 14.3 92.665 14.3ZM81.555 49.5C83.1683 49.5 84.58 49.0967 85.79 48.29C87 47.4833 87.935 46.3833 88.595 44.99C89.2917 43.5967 89.64 42.0383 89.64 40.315C89.64 38.555 89.2917 36.9783 88.595 35.585C87.935 34.1917 87 33.0917 85.79 32.285C84.58 31.4783 83.1683 31.075 81.555 31.075C79.9783 31.075 78.585 31.4783 77.375 32.285C76.165 33.0917 75.2117 34.1917 74.515 35.585C73.855 36.9783 73.525 38.555 73.525 40.315C73.525 42.0383 73.855 43.5967 74.515 44.99C75.2117 46.3833 76.165 47.4833 77.375 48.29C78.585 49.0967 79.9783 49.5 81.555 49.5ZM116.971 55.55C113.854 55.55 111.141 54.9083 108.831 53.625C106.558 52.305 104.798 50.5267 103.551 48.29C102.341 46.0533 101.736 43.5233 101.736 40.7C101.736 37.4 102.396 34.595 103.716 32.285C105.073 29.9383 106.833 28.1417 108.996 26.895C111.159 25.6483 113.451 25.025 115.871 25.025C117.741 25.025 119.501 25.41 121.151 26.18C122.838 26.95 124.323 28.0133 125.606 29.37C126.889 30.69 127.898 32.23 128.631 33.99C129.401 35.75 129.786 37.62 129.786 39.6C129.749 40.48 129.401 41.195 128.741 41.745C128.081 42.295 127.311 42.57 126.431 42.57H105.421L103.771 37.07H123.956L122.746 38.17V36.685C122.673 35.6217 122.288 34.6683 121.591 33.825C120.931 32.9817 120.088 32.3217 119.061 31.845C118.071 31.3317 117.008 31.075 115.871 31.075C114.771 31.075 113.744 31.2217 112.791 31.515C111.838 31.8083 111.013 32.3033 110.316 33C109.619 33.6967 109.069 34.6317 108.666 35.805C108.263 36.9783 108.061 38.4633 108.061 40.26C108.061 42.24 108.464 43.9267 109.271 45.32C110.114 46.6767 111.178 47.7217 112.461 48.455C113.781 49.1517 115.174 49.5 116.641 49.5C117.998 49.5 119.079 49.39 119.886 49.17C120.693 48.95 121.334 48.6933 121.811 48.4C122.324 48.07 122.783 47.795 123.186 47.575C123.846 47.245 124.469 47.08 125.056 47.08C125.863 47.08 126.523 47.355 127.036 47.905C127.586 48.455 127.861 49.0967 127.861 49.83C127.861 50.82 127.348 51.7183 126.321 52.525C125.368 53.3317 124.029 54.0467 122.306 54.67C120.583 55.2567 118.804 55.55 116.971 55.55ZM154.308 48.95C155.188 48.95 155.921 49.2433 156.508 49.83C157.094 50.38 157.388 51.095 157.388 51.975C157.388 52.8183 157.094 53.5333 156.508 54.12C155.921 54.7067 155.188 55 154.308 55H136.598C135.681 55 134.948 54.67 134.398 54.01C133.848 53.35 133.591 52.69 133.628 52.03C133.664 51.48 133.738 51.0033 133.848 50.6C133.958 50.16 134.233 49.665 134.673 49.115L148.368 31.405L148.258 32.175H137.093C136.213 32.175 135.479 31.8817 134.893 31.295C134.306 30.7083 134.013 29.975 134.013 29.095C134.013 28.2517 134.306 27.555 134.893 27.005C135.479 26.4183 136.213 26.125 137.093 26.125H154.033C154.876 26.125 155.591 26.4367 156.178 27.06C156.764 27.6833 157.021 28.4717 156.948 29.425C156.911 29.7917 156.838 30.1583 156.728 30.525C156.654 30.8917 156.416 31.3317 156.013 31.845L142.538 49.28V48.95H154.308ZM168.408 51.645C168.408 52.5983 168.096 53.405 167.473 54.065C166.85 54.6883 166.061 55 165.108 55C164.155 55 163.366 54.6883 162.743 54.065C162.12 53.405 161.808 52.5983 161.808 51.645V28.93C161.808 27.9767 162.12 27.1883 162.743 26.565C163.366 25.905 164.155 25.575 165.108 25.575C166.061 25.575 166.85 25.905 167.473 26.565C168.096 27.1883 168.408 27.9767 168.408 28.93V51.645ZM165.053 22C163.806 22 162.926 21.7983 162.413 21.395C161.9 20.9917 161.643 20.2767 161.643 19.25V18.205C161.643 17.1417 161.918 16.4267 162.468 16.06C163.055 15.6567 163.935 15.455 165.108 15.455C166.391 15.455 167.29 15.6567 167.803 16.06C168.316 16.4633 168.573 17.1783 168.573 18.205V19.25C168.573 20.3133 168.298 21.0467 167.748 21.45C167.198 21.8167 166.3 22 165.053 22ZM190.426 25.025C192.993 25.025 195.285 25.685 197.301 27.005C199.355 28.2883 200.968 30.0667 202.141 32.34C203.351 34.6133 203.956 37.2533 203.956 40.26C203.956 43.2667 203.351 45.925 202.141 48.235C200.968 50.5083 199.373 52.305 197.356 53.625C195.376 54.9083 193.14 55.55 190.646 55.55C189.18 55.55 187.805 55.3117 186.521 54.835C185.238 54.3583 184.101 53.7533 183.111 53.02C182.158 52.2867 181.406 51.5533 180.856 50.82C180.343 50.05 180.086 49.4083 180.086 48.895L181.791 48.18V62.645C181.791 63.5983 181.48 64.3867 180.856 65.01C180.233 65.67 179.445 66 178.491 66C177.538 66 176.75 65.6883 176.126 65.065C175.503 64.4417 175.191 63.635 175.191 62.645V28.93C175.191 27.9767 175.503 27.1883 176.126 26.565C176.75 25.905 177.538 25.575 178.491 25.575C179.445 25.575 180.233 25.905 180.856 26.565C181.48 27.1883 181.791 27.9767 181.791 28.93V31.625L180.856 31.13C180.856 30.6533 181.113 30.085 181.626 29.425C182.14 28.7283 182.836 28.05 183.716 27.39C184.596 26.6933 185.605 26.125 186.741 25.685C187.915 25.245 189.143 25.025 190.426 25.025ZM189.601 31.075C187.988 31.075 186.576 31.4783 185.366 32.285C184.156 33.0917 183.203 34.1917 182.506 35.585C181.846 36.9417 181.516 38.5 181.516 40.26C181.516 41.9833 181.846 43.56 182.506 44.99C183.203 46.3833 184.156 47.4833 185.366 48.29C186.576 49.0967 187.988 49.5 189.601 49.5C191.215 49.5 192.608 49.0967 193.781 48.29C194.991 47.4833 195.926 46.3833 196.586 44.99C197.283 43.56 197.631 41.9833 197.631 40.26C197.631 38.5 197.283 36.9417 196.586 35.585C195.926 34.1917 194.991 33.0917 193.781 32.285C192.608 31.4783 191.215 31.075 189.601 31.075ZM223.587 55.55C220.471 55.55 217.757 54.9083 215.447 53.625C213.174 52.305 211.414 50.5267 210.167 48.29C208.957 46.0533 208.352 43.5233 208.352 40.7C208.352 37.4 209.012 34.595 210.332 32.285C211.689 29.9383 213.449 28.1417 215.612 26.895C217.776 25.6483 220.067 25.025 222.487 25.025C224.357 25.025 226.117 25.41 227.767 26.18C229.454 26.95 230.939 28.0133 232.222 29.37C233.506 30.69 234.514 32.23 235.247 33.99C236.017 35.75 236.402 37.62 236.402 39.6C236.366 40.48 236.017 41.195 235.357 41.745C234.697 42.295 233.927 42.57 233.047 42.57H212.037L210.387 37.07H230.572L229.362 38.17V36.685C229.289 35.6217 228.904 34.6683 228.207 33.825C227.547 32.9817 226.704 32.3217 225.677 31.845C224.687 31.3317 223.624 31.075 222.487 31.075C221.387 31.075 220.361 31.2217 219.407 31.515C218.454 31.8083 217.629 32.3033 216.932 33C216.236 33.6967 215.686 34.6317 215.282 35.805C214.879 36.9783 214.677 38.4633 214.677 40.26C214.677 42.24 215.081 43.9267 215.887 45.32C216.731 46.6767 217.794 47.7217 219.077 48.455C220.397 49.1517 221.791 49.5 223.257 49.5C224.614 49.5 225.696 49.39 226.502 49.17C227.309 48.95 227.951 48.6933 228.427 48.4C228.941 48.07 229.399 47.795 229.802 47.575C230.462 47.245 231.086 47.08 231.672 47.08C232.479 47.08 233.139 47.355 233.652 47.905C234.202 48.455 234.477 49.0967 234.477 49.83C234.477 50.82 233.964 51.7183 232.937 52.525C231.984 53.3317 230.646 54.0467 228.922 54.67C227.199 55.2567 225.421 55.55 223.587 55.55ZM245.469 55C244.515 55 243.727 54.6883 243.104 54.065C242.48 53.405 242.169 52.5983 242.169 51.645V28.93C242.169 27.9767 242.48 27.1883 243.104 26.565C243.727 25.905 244.515 25.575 245.469 25.575C246.422 25.575 247.21 25.905 247.834 26.565C248.457 27.1883 248.769 27.9767 248.769 28.93V34.1L248.384 30.415C248.787 29.535 249.3 28.765 249.924 28.105C250.584 27.4083 251.317 26.84 252.124 26.4C252.93 25.9233 253.792 25.575 254.709 25.355C255.625 25.135 256.542 25.025 257.459 25.025C258.559 25.025 259.475 25.3367 260.209 25.96C260.979 26.5833 261.364 27.3167 261.364 28.16C261.364 29.37 261.052 30.25 260.429 30.8C259.805 31.3133 259.127 31.57 258.394 31.57C257.697 31.57 257.055 31.4417 256.469 31.185C255.919 30.9283 255.277 30.8 254.544 30.8C253.884 30.8 253.205 30.965 252.509 31.295C251.849 31.5883 251.225 32.065 250.639 32.725C250.089 33.385 249.63 34.21 249.264 35.2C248.934 36.1533 248.769 37.29 248.769 38.61V51.645C248.769 52.5983 248.457 53.405 247.834 54.065C247.21 54.6883 246.422 55 245.469 55Z" fill="black"/>
<path d="M3.74997 20.5814L28 34.415L52.25 20.5814M28 62V34.3876M53 45.345V23.4303C52.999 22.4696 52.7418 21.526 52.2543 20.6942C51.7667 19.8624 51.0659 19.1717 50.2222 18.6913L30.7778 7.734C29.9332 7.25315 28.9752 7 28 7C27.0248 7 26.0668 7.25315 25.2222 7.734L5.77778 18.6913C4.93406 19.1717 4.23328 19.8624 3.74573 20.6942C3.25817 21.526 3.001 22.4696 3 23.4303V45.345C3.001 46.3057 3.25817 47.2493 3.74573 48.0811C4.23328 48.9129 4.93406 49.6036 5.77778 50.084L25.2222 61.0413C26.0668 61.5222 27.0248 61.7753 28 61.7753C28.9752 61.7753 29.9332 61.5222 30.7778 61.0413L50.2222 50.084C51.0659 49.6036 51.7667 48.9129 52.2543 48.0811C52.7418 47.2493 52.999 46.3057 53 45.345Z" stroke="#14181F" stroke-width="6" stroke-linecap="round" stroke-linejoin="round"/>
</svg>
